<svg width="120" height="121" viewBox="0 0 120 121" fill="none" xmlns="http://www.w3.org/2000/svg">
<path fill-rule="evenodd" clip-rule="evenodd" d="M62.0673 28.2307V14.5944C62.0673 7.0671 68.067 0.958008 75.5393 0.958008H89.0114V14.5944C89.0114 22.1216 82.9572 28.2307 75.5393 28.2307H62.0673ZM75.5393 59.158C68.067 59.158 62.0673 53.0489 62.0673 45.5216C62.0673 37.9943 68.067 31.8853 75.5393 31.8853H89.0114V45.5216C89.0114 53.0489 82.9572 59.158 75.5393 59.158ZM75.4871 62.7578C68.0693 62.7578 62.015 68.8669 62.015 76.3942C62.015 83.9215 68.0147 90.0306 75.4871 90.0306H88.9592V76.3942C88.9592 68.8669 82.9595 62.7578 75.4871 62.7578ZM93.056 45.5216C93.056 37.9943 99.1103 31.8853 106.528 31.8853H120V45.5216C120 53.0489 113.946 59.158 106.528 59.158H93.056V45.5216ZM106.528 62.7578H93.056V76.3942C93.056 83.9215 99.0557 90.0306 106.528 90.0306H120V76.3942C120 68.8669 114 62.7578 106.528 62.7578ZM62.015 93.6851H75.4871C82.9595 93.6851 88.9592 99.7942 88.9592 107.321V120.958H75.4871C68.0147 120.958 62.015 114.849 62.015 107.321V93.6851ZM44.4993 31.8853H31.0272V45.5216C31.0272 53.0489 37.0269 59.158 44.4993 59.158C51.9172 59.158 57.9714 53.0489 57.9714 45.5216C57.9169 37.9943 51.9172 31.8853 44.4993 31.8853ZM31.0272 0.958008H44.4993C51.9172 0.958008 57.9169 7.0671 57.9714 14.5944V28.2307H44.4993C37.0269 28.2307 31.0272 22.1216 31.0272 14.5944V0.958008ZM44.4993 62.7578C37.0815 62.7578 31.0272 68.8669 31.0272 76.3942V90.0306H44.4993C51.9172 90.0306 57.9714 83.9215 57.9714 76.3942C57.9714 68.8669 51.9172 62.7578 44.4993 62.7578ZM-0.00012207 31.8853H13.472C20.8898 31.8853 26.8895 37.9943 26.9441 45.5216V59.158H13.472C5.99959 59.158 -0.00012207 53.0489 -0.00012207 45.5216V31.8853ZM13.472 62.7578C6.05414 62.7578 -0.00012207 68.8669 -0.00012207 76.3942V90.0306H13.472C20.8898 90.0306 26.9441 83.9215 26.9441 76.3942V62.7578H13.472ZM31.0272 107.321C31.0272 99.7942 37.0815 93.6851 44.4993 93.6851H57.9714V107.321C57.9714 114.849 51.9172 120.958 44.4993 120.958H31.0272V107.321Z" fill="#013739"/>
</svg>
